<?xml version="1.0" standalone="no"?>
<!DOCTYPE svg PUBLIC "-//W3C//DTD SVG 20010904//EN"
 "http://www.w3.org/TR/2001/REC-SVG-20010904/DTD/svg10.dtd">
<svg version="1.0" xmlns="http://www.w3.org/2000/svg"
 width="460.000000pt" height="460.000000pt" viewBox="0 0 460.000000 460.000000"
 preserveAspectRatio="xMidYMid meet">
<metadata>
Created by potrace 1.14, written by Peter Selinger 2001-2017
</metadata>
<g transform="translate(0.000000,460.000000) scale(0.100000,-0.100000)"
fill="#000000" stroke="none">
<path d="M475 4121 c-42 -11 -94 -39 -123 -67 -14 -12 -29 -21 -33 -18 -4 2
-11 -1 -15 -7 -4 -8 -3 -9 4 -5 7 4 12 2 12 -3 0 -6 -4 -11 -8 -11 -5 0 -22
-26 -38 -57 -25 -51 -29 -68 -28 -138 1 -89 9 -182 20 -229 6 -30 34 -96 44
-106 3 -3 18 -22 34 -44 40 -53 132 -96 208 -96 167 0 285 121 309 317 22 177
22 204 -2 268 -25 68 -91 140 -160 176 -46 23 -170 35 -224 20z m196 -30 c81
-31 140 -96 173 -193 30 -89 29 -114 -15 -204 -86 -181 -312 -230 -466 -100
-37 31 -106 168 -96 192 4 12 3 15 -5 10 -8 -5 -12 0 -12 14 0 12 4 19 9 16 5
-3 9 4 10 17 3 66 7 87 19 99 6 6 12 17 12 23 0 7 17 29 38 51 47 47 72 67 72
57 0 -4 5 -2 12 5 7 7 20 12 30 12 10 0 18 4 18 8 0 4 33 9 73 10 54 3 87 -2
128 -17z"/>
<path d="M3985 4121 c-134 -35 -237 -167 -239 -306 -1 -78 42 -193 67 -178 6
4 7 1 2 -6 -13 -21 75 -95 143 -120 163 -61 339 19 408 186 62 153 -13 338
-166 406 -49 22 -164 32 -215 18z m208 -40 c27 -13 59 -34 72 -47 12 -12 25
-21 28 -18 5 6 51 -88 67 -140 8 -23 10 -58 6 -90 -4 -28 -8 -59 -9 -68 -1 -9
-5 -14 -10 -11 -5 3 -7 0 -5 -8 3 -8 -4 -25 -16 -38 -11 -13 -14 -20 -6 -16 8
5 -4 -9 -27 -31 -22 -23 -66 -53 -97 -69 -47 -24 -68 -28 -129 -28 -40 0 -83
6 -95 12 -13 7 -27 9 -32 6 -6 -4 -13 1 -16 9 -3 9 -10 13 -15 10 -5 -3 -9 0
-9 5 0 6 -6 11 -13 11 -8 0 -22 10 -33 23 l-19 22 25 -19 c24 -19 24 -19 -2
10 -15 16 -35 38 -46 50 -10 11 -16 26 -14 34 3 8 0 10 -8 5 -9 -5 -11 -4 -6
3 4 6 0 25 -9 41 -19 38 -19 99 1 139 8 18 12 37 8 43 -4 7 -3 10 2 7 5 -3 16
9 25 28 9 18 11 31 5 27 -6 -4 3 7 19 23 17 16 33 28 38 26 4 -2 7 1 7 7 0 12
72 51 95 51 9 0 14 4 11 9 -3 5 31 8 77 7 64 -1 92 -6 130 -25z m-100 -578
c-13 -2 -33 -2 -45 0 -13 2 -3 4 22 4 25 0 35 -2 23 -4z"/>
<path d="M2111 3920 c-41 -4 -92 -13 -115 -19 -23 -5 -70 -17 -106 -25 -127
-30 -436 -177 -426 -202 3 -7 -2 -18 -10 -24 -9 -8 -14 -9 -14 -2 0 6 6 13 13
15 9 4 9 6 -1 6 -21 1 -102 -63 -97 -77 3 -7 0 -10 -6 -7 -5 4 -27 -6 -47 -22
-20 -15 -41 -27 -45 -25 -5 1 -6 -1 -3 -6 3 -5 -18 -31 -45 -58 -28 -27 -78
-85 -112 -129 -33 -44 -63 -82 -67 -85 -12 -11 -45 -68 -87 -154 -25 -50 -51
-102 -58 -116 -13 -25 -31 -80 -65 -200 -50 -173 -64 -419 -35 -609 17 -117
34 -181 79 -316 26 -75 35 -125 40 -200 16 -245 132 -559 281 -760 102 -137
276 -307 364 -354 14 -8 28 -18 31 -22 12 -19 232 -120 320 -148 110 -35 277
-61 388 -61 147 0 343 33 448 75 66 27 108 45 126 55 10 6 23 10 29 10 6 0 31
14 56 30 24 17 46 30 49 30 9 0 157 112 198 149 66 60 136 135 154 164 9 15
19 27 23 27 4 0 18 17 30 38 13 20 26 39 30 42 11 9 100 171 130 237 65 146
109 319 134 533 3 30 22 100 40 155 126 367 131 667 15 1030 -36 111 -171 371
-211 405 -3 3 -20 25 -37 49 -76 106 -312 321 -352 321 -5 0 -10 4 -10 9 0 5
-39 30 -87 54 -49 25 -101 52 -118 61 -70 36 -168 68 -345 111 -77 19 -369 28
-479 15z m423 -35 c61 -9 149 -30 198 -46 48 -16 93 -27 100 -25 7 1 10 1 6
-1 -7 -4 225 -123 239 -123 4 0 -2 7 -13 16 -18 14 -18 15 4 4 12 -6 20 -16
16 -22 -4 -5 0 -14 7 -19 23 -14 32 -10 18 9 -13 15 -12 16 3 3 10 -7 16 -17
13 -21 -3 -5 9 -19 27 -31 81 -56 221 -188 280 -265 12 -16 25 -31 28 -34 16
-14 119 -183 146 -240 55 -115 105 -263 124 -365 18 -97 24 -330 11 -447 -27
-248 -121 -486 -277 -698 -26 -36 -57 -74 -68 -85 -12 -11 -32 -34 -46 -50
-97 -114 -333 -278 -477 -331 -26 -9 -52 -21 -58 -24 -10 -7 -110 -38 -190
-59 -69 -19 -250 -41 -328 -41 -91 0 -264 24 -366 51 -486 129 -865 489 -1019
969 -38 119 -49 175 -62 319 -9 106 -2 286 16 391 19 114 100 343 149 420 14
22 25 42 25 44 0 22 144 209 223 290 44 44 45 60 1 18 -44 -42 -137 -150 -157
-183 -11 -16 -23 -29 -28 -29 -5 0 -9 -7 -9 -15 0 -20 -56 -96 -64 -87 -4 3
-4 -2 0 -11 3 -10 0 -25 -8 -35 -8 -9 -33 -62 -56 -117 -108 -262 -133 -505
-88 -860 9 -66 18 -156 21 -200 l5 -80 -23 70 c-111 330 -92 713 51 1055 19
47 39 90 43 95 4 6 21 36 38 68 16 31 56 92 87 135 62 83 262 287 272 277 4
-3 0 -10 -8 -15 -8 -6 -10 -10 -5 -9 14 0 92 69 79 69 -6 0 -17 -7 -24 -15 -7
-8 -18 -15 -24 -15 -11 1 15 24 48 42 13 7 16 7 12 -1 -11 -17 3 -13 35 10 16
11 27 24 24 29 -3 5 0 12 6 16 8 4 9 3 5 -4 -11 -18 0 -14 49 16 25 16 42 32
38 37 -5 4 -2 5 5 1 15 -9 104 32 97 45 -4 5 0 6 8 3 7 -2 36 5 63 17 225 97
494 126 778 84z m441 -133 c-3 -3 -11 0 -18 7 -9 10 -8 11 6 5 10 -3 15 -9 12
-12z m-1430 -42 c-3 -5 -12 -10 -18 -10 -7 0 -6 4 3 10 19 12 23 12 15 0z
m1615 -60 c0 -5 -2 -10 -4 -10 -3 0 -8 5 -11 10 -3 6 -1 10 4 10 6 0 11 -4 11
-10z m77 -56 c32 -26 99 -88 148 -140 106 -109 96 -98 167 -199 259 -372 334
-884 191 -1310 l-23 -70 5 112 c3 62 8 123 11 135 2 13 12 88 21 168 14 125
15 163 4 275 -7 72 -19 159 -27 195 -38 180 -123 376 -220 511 -19 26 -34 49
-34 53 0 3 -8 14 -17 25 -10 10 -40 44 -68 76 -27 32 -55 63 -61 69 -25 24
-130 116 -149 130 -11 9 -17 16 -13 16 4 0 33 -21 65 -46z"/>
<path d="M1310 3535 c-8 -9 -8 -15 -2 -15 12 0 26 19 19 26 -2 2 -10 -2 -17
-11z"/>
<path d="M2242 1777 c-56 -59 7 -156 82 -127 32 12 59 57 52 86 -16 63 -92 86
-134 41z"/>
<path d="M2068 1617 c-43 -33 -34 -107 16 -131 57 -27 110 6 110 69 0 47 -28
75 -73 75 -20 0 -44 -6 -53 -13z"/>
<path d="M2411 1604 c-27 -34 -27 -67 2 -98 34 -39 68 -42 105 -11 24 20 32
35 32 59 0 71 -96 105 -139 50z"/>
<path d="M81 1519 c-41 -21 -61 -36 -57 -45 3 -7 0 -16 -6 -20 -7 -4 -8 -3 -4
4 4 7 3 12 -2 12 -5 0 -9 -12 -9 -26 l0 -25 23 22 c13 12 21 26 18 31 -3 5 -2
8 3 7 14 -3 43 13 38 21 -3 4 1 8 8 7 29 -1 48 4 44 11 -3 4 37 7 88 7 51 0
91 -3 88 -7 -4 -8 15 -12 45 -11 7 1 11 -2 8 -5 -10 -9 33 -34 47 -26 6 4 9 4
5 -1 -10 -11 11 -37 23 -29 5 3 8 0 7 -8 -2 -7 2 -12 9 -11 7 2 10 -3 7 -11
-3 -7 2 -18 10 -25 8 -6 20 -32 27 -56 7 -25 16 -45 19 -45 10 0 -7 -137 -20
-160 -6 -11 -8 -26 -4 -33 4 -6 4 -9 -1 -5 -4 4 -20 -10 -36 -31 -30 -42 -88
-91 -108 -91 -7 0 -10 -3 -8 -7 3 -5 -5 -9 -16 -10 -12 -1 -49 -5 -82 -9 -48
-5 -71 -2 -118 16 -31 12 -63 28 -71 36 -17 17 -30 19 -20 2 4 -7 3 -8 -5 -4
-6 4 -9 11 -6 16 3 4 -1 13 -8 18 -10 8 -13 6 -14 -8 -1 -11 3 -22 8 -25 5 -4
6 -11 3 -17 -4 -6 -2 -8 3 -5 6 4 30 -4 54 -17 69 -38 146 -51 210 -36 112 26
178 77 234 180 26 49 30 64 29 135 0 103 -33 176 -108 242 -58 51 -123 73
-217 73 -65 0 -85 -5 -138 -31z"/>
<path d="M4281 1534 c-19 -8 -36 -12 -38 -10 -3 2 -13 -3 -23 -12 -73 -68 -90
-87 -116 -134 -27 -49 -29 -61 -28 -148 0 -88 3 -99 32 -148 41 -67 56 -83
117 -120 73 -44 150 -59 222 -42 74 16 153 59 153 83 0 18 -2 18 -32 -3 -128
-85 -275 -77 -376 20 -73 70 -110 175 -91 258 5 24 7 47 4 53 -4 5 -2 9 3 9 9
0 47 70 44 83 -1 4 2 7 7 7 5 0 28 16 51 35 23 19 58 39 79 45 45 12 191 18
184 8 -2 -5 3 -9 11 -9 9 -1 21 -2 27 -3 6 -1 28 -16 48 -35 30 -28 37 -31 39
-17 5 25 -12 41 -74 70 -44 21 -69 26 -132 26 -45 -1 -91 -7 -111 -16z"/>
</g>
</svg>
